#!OML:ASF H:\Terrain\Walking\May29\JustinRory\Justin.ASF
:FULLY-SPECIFIED
:DEGREES
443
root 10.9467 17.3999 -10.579 2.71958 -16.0611 -3.71519 
lowerback 3.25107 0.822367 1.45717 
upperback 0.513961 1.18701 3.32587 
thorax -1.33653 0.58942 2.54724 
lowerneck -16.9556 1.91208 -9.35002 
upperneck 29.5968 6.03988 -1.20166 
head 12.4618 1.42841 2.04837 
rclavicle -1.26725e-14 -3.89618e-14 
rhumerus -23.1226 2.36687 -92.2785 
rradius 40.8172 
rwrist -8.62021 
rhand -8.74414 -335.742 
rfingers 7.12502 
rthumb 17.1927 -5.00102 
lclavicle -1.26725e-14 -3.89618e-14 
lhumerus -20.7687 21.1126 68.5833 
lradius 28.3461 
lwrist -8.98643 
lhand -3.9519 43.9858 
lfingers 7.12502 
lthumb 21.8001 72.778 
rfemur -11.9787 -5.82713 19.6678 
rtibia 29.743 
rfoot -16.4851 -19.3905 
rtoes 3.00898 
lfemur -12.5476 4.22483 -13.442 
ltibia 34.6869 
lfoot -21.5828 3.51225 
ltoes -13.2956 
444
root 10.9529 17.403 -10.5943 2.91718 -16.7131 -3.90199 
lowerback 3.19795 0.89451 1.51581 
upperback 0.538104 1.28243 3.36473 
thorax -1.28483 0.63666 2.55119 
lowerneck -16.884 1.80674 -9.28089 
upperneck 29.5015 5.89879 -1.36801 
head 12.4258 1.35558 1.94966 
rclavicle -2.32081e-14 -2.38542e-15 
rhumerus -23.1188 2.39271 -92.102 
rradius 40.6328 
rwrist -8.76384 
rhand -9.00188 -335.738 
rfingers 7.12502 
rthumb 16.9446 -5.01863 
lclavicle -2.32081e-14 -2.38542e-15 
lhumerus -20.9134 20.0957 69.0085 
lradius 29.377 
lwrist -7.65011 
lhand -3.93504 43.9215 
lfingers 7.12502 
lthumb 21.8163 72.7118 
rfemur -12.3074 -5.37187 19.8882 
rtibia 29.8022 
rfoot -16.3856 -19.3141 
rtoes 3.59139 
lfemur -12.5948 4.3567 -13.3039 
ltibia 34.6442 
lfoot -21.6445 4.05658 
ltoes -12.5934 
445
root 10.9554 17.4052 -10.6029 2.99606 -17.1303 -4.15638 
lowerback 3.22244 0.965448 1.70387 
upperback 0.63793 1.38052 3.43583 
thorax -1.19667 0.684501 2.51522 
lowerneck -16.8173 1.57129 -9.32266 
upperneck 29.2469 5.6245 -1.62716 
head 12.3357 1.20805 1.81258 
rclavicle 3.03644e-14 -1.59028e-15 
rhumerus -22.8378 1.98095 -91.7459 
rradius 40.1144 
rwrist -8.7111 
rhand -9.08661 -335.539 
rfingers 7.12502 
rthumb 16.8631 -4.82673 
lclavicle 3.03644e-14 -1.59028e-15 
lhumerus -20.6788 19.652 69.6782 
lradius 30.0566 
lwrist -6.99526 
lhand -3.77305 43.629 
lfingers 7.12502 
lthumb 21.9719 72.4011 
rfemur -12.4067 -5.14906 20.1636 
rtibia 29.8065 
rfoot -16.2824 -19.2362 
rtoes 3.37468 
lfemur -12.5285 4.57597 -13.0657 
ltibia 34.6397 
lfoot -21.642 4.42966 
ltoes -12.6456 
446
root 10.9609 17.4089 -10.6117 3.03556 -17.4538 -4.34895 
lowerback 3.34233 0.991849 1.90984 
upperback 0.641872 1.42689 3.42668 
thorax -1.25597 0.706534 2.38613 
lowerneck -16.6041 1.42733 -9.38231 
upperneck 28.9736 5.37675 -1.60151 
head 12.1902 1.11266 1.78759 
rclavicle 2.65378e-14 -7.95139e-15 
rhumerus -22.6431 1.57364 -91.4641 
rradius 39.453 
rwrist -8.79904 
rhand -9.23446 -335.608 
rfingers 7.12502 
rthumb 16.7207 -4.90779 
lclavicle 2.65378e-14 -7.95139e-15 
lhumerus -20.5639 19.1677 70.2361 
lradius 30.7132 
lwrist -6.44791 
lhand -3.40386 43.7523 
lfingers 7.12502 
lthumb 22.3263 72.4824 
rfemur -12.4501 -4.96962 20.369 
rtibia 29.7624 
rfoot -16.2257 -19.1112 
rtoes 3.12002 
lfemur -12.4959 4.66342 -12.9073 
ltibia 34.6786 
lfoot -21.5353 4.8723 
ltoes -13.1476 
447
root 10.9665 17.4131 -10.621 2.99484 -17.9022 -4.19532 
lowerback 3.49612 0.957561 1.72429 
upperback 0.603984 1.3806 3.28038 
thorax -1.38047 0.683974 2.33843 
lowerneck -16.413 1.46646 -9.08162 
upperneck 28.7585 5.29376 -1.58753 
head 12.0709 1.12412 1.72428 
rclavicle 7.60351e-15 -1.55052e-14 
rhumerus -22.6863 1.44053 -91.4196 
rradius 38.9775 
rwrist -8.99321 
rhand -9.58606 -335.715 
rfingers 7.12502 
rthumb 16.3822 -5.04345 
lclavicle 7.60351e-15 -1.55052e-14 
lhumerus -20.7797 18.7077 70.4454 
lradius 31.5208 
lwrist -5.91197 
lhand -3.20793 43.9599 
lfingers 7.12502 
lthumb 22.5144 72.6674 
rfemur -12.5621 -4.78146 20.2035 
rtibia 29.7543 
rfoot -16.0687 -18.9633 
rtoes 3.5743 
lfemur -12.4552 4.72831 -13.1213 
ltibia 34.6707 
lfoot -21.49 5.30716 
ltoes -13.1131 
448
root 10.9683 17.4179 -10.6278 2.93757 -18.4971 -3.88831 
lowerback 3.55798 0.97368 1.28773 
upperback 0.593324 1.38707 3.14365 
thorax -1.43319 0.689394 2.44104 
lowerneck -16.2861 1.44564 -8.82243 
upperneck 28.5645 5.15997 -1.61012 
head 11.9775 1.10052 1.64851 
rclavicle -4.98453e-14 2.38542e-15 
rhumerus -22.7946 1.26899 -91.3328 
rradius 38.6219 
rwrist -8.9921 
rhand -9.94258 -335.965 
rfingers 7.12502 
rthumb 16.0389 -5.32084 
lclavicle -4.98453e-14 2.38542e-15 
lhumerus -20.977 18.937 70.7865 
lradius 32.2794 
lwrist -6.0496 
lhand -3.6702 43.4119 
lfingers 7.12502 
lthumb 22.0706 72.1724 
rfemur -12.7357 -4.66393 19.8673 
rtibia 29.7853 
rfoot -15.8504 -18.6649 
rtoes 3.63746 
lfemur -12.4117 4.77729 -13.5028 
ltibia 34.664 
lfoot -21.477 5.7717 
ltoes -11.4387 
449
root 10.9717 17.4184 -10.6351 3.01738 -19.1043 -3.83863 
lowerback 3.57542 1.03065 1.145 
upperback 0.520832 1.46006 3.08693 
thorax -1.52194 0.726899 2.45819 
lowerneck -16.3848 1.29129 -9.1544 
upperneck 28.686 4.90458 -1.12353 
head 12.0289 1.00598 1.8521 
rclavicle -4.82053e-14 -1.66979e-14 
rhumerus -22.8533 0.827363 -91.12 
rradius 38.0923 
rwrist -8.75139 
rhand -9.99592 -336.162 
rfingers 7.12502 
rthumb 15.9876 -5.52221 
lclavicle -4.82053e-14 -1.66979e-14 
lhumerus -21.1968 18.7345 71.292 
lradius 33.0908 
lwrist -5.88433 
lhand -3.99353 42.7 
lfingers 7.12502 
lthumb 21.7602 71.4969 
rfemur -12.9934 -4.76676 19.8027 
rtibia 29.8399 
rfoot -15.4973 -18.175 
rtoes 2.92797 
lfemur -12.4099 4.70019 -13.642 
ltibia 34.6914 
lfoot -21.4469 6.48571 
ltoes -10.5496 
450
root 10.9749 17.4153 -10.6431 3.28283 -19.7577 -4.19023 
lowerback 3.57905 1.07087 1.43446 
upperback 0.428365 1.52794 3.1018 
thorax -1.61418 0.75908 2.30666 
lowerneck -16.0667 1.1832 -9.0287 
upperneck 28.3069 4.66959 -1.20706 
head 11.8297 0.925979 1.75524 
rclavicle 9.93923e-16 -4.09496e-14 
rhumerus -22.7961 0.255244 -90.9629 
rradius 37.2837 
rwrist -8.37127 
rhand -10.2484 -336.005 
rfingers 7.12502 
rthumb 15.7444 -5.38485 
lclavicle 9.93923e-16 -4.09496e-14 
lhumerus -21.6252 17.3037 71.56 
lradius 34.2407 
lwrist -4.72659 
lhand -3.55024 42.4511 
lfingers 7.12502 
lthumb 22.1858 71.1979 
rfemur -13.3211 -4.72634 20.1831 
rtibia 29.8915 
rfoot -15.2453 -17.7507 
rtoes 2.73833 
lfemur -12.4771 4.65756 -13.362 
ltibia 34.7485 
lfoot -21.4816 7.39203 
ltoes -11.6235 
